<?xml version="1.0" encoding="utf-8"?>
<!-- Generator: Adobe Illustrator 16.0.0, SVG Export Plug-In . SVG Version: 6.00 Build 0)  -->
<!DOCTYPE svg PUBLIC "-//W3C//DTD SVG 1.1//EN" "http://www.w3.org/Graphics/SVG/1.1/DTD/svg11.dtd">
<svg version="1.1" id="Layer_1" xmlns="http://www.w3.org/2000/svg" xmlns:xlink="http://www.w3.org/1999/xlink" x="0px" y="0px"
	 width="20.076px" height="20.075px" viewBox="0 0 20.076 20.075" enable-background="new 0 0 20.076 20.075" xml:space="preserve">
<circle fill="none" cx="10.038" cy="10.036" r="10.038"/>
<path fill="#E5E5E5" d="M10.85,9.811h2.708c0.149,0,0.271-0.121,0.271-0.271c0-0.149-0.121-0.27-0.271-0.27H10.85
	c-0.148,0-0.271,0.12-0.271,0.27C10.578,9.69,10.701,9.811,10.85,9.811 M10.85,8.729h1.625c0.15,0,0.271-0.121,0.271-0.271
	c0-0.149-0.121-0.271-0.271-0.271H10.85c-0.148,0-0.271,0.122-0.271,0.271C10.578,8.608,10.701,8.729,10.85,8.729 M10.85,10.895
	h1.083c0.149,0,0.271-0.122,0.271-0.271s-0.121-0.271-0.271-0.271H10.85c-0.148,0-0.271,0.122-0.271,0.271
	S10.701,10.895,10.85,10.895 M6.787,11.977h2.166c0.301,0,0.543-0.242,0.543-0.541V8.729c0-0.299-0.242-0.543-0.543-0.543H6.787
	c-0.298,0-0.541,0.244-0.541,0.543v2.707C6.246,11.735,6.489,11.977,6.787,11.977 M6.787,8.729h2.166v2.707H6.787V8.729z
	 M10.85,11.977h2.708c0.149,0,0.271-0.12,0.271-0.271c0-0.149-0.121-0.271-0.271-0.271H10.85c-0.148,0-0.271,0.121-0.271,0.271
	C10.578,11.857,10.701,11.977,10.85,11.977 M15.453,5.479h-4.875c0-0.301-0.242-0.54-0.541-0.54s-0.541,0.239-0.541,0.54H4.621
	c-0.299,0-0.541,0.242-0.541,0.541v0.543c0,0.299,0.242,0.541,0.541,0.541v6.498c0,0.299,0.242,0.543,0.541,0.543h4.604v0.697
	l-1.546,1.547c-0.049,0.05-0.079,0.117-0.079,0.191c0,0.15,0.122,0.271,0.271,0.271c0.074,0,0.143-0.031,0.191-0.079l1.434-1.435
	l1.434,1.435c0.049,0.048,0.117,0.079,0.191,0.079c0.149,0,0.271-0.121,0.271-0.271c0-0.074-0.03-0.142-0.079-0.191l-1.545-1.547
	v-0.697h4.603c0.3,0,0.542-0.244,0.542-0.543V7.104c0.299,0,0.541-0.242,0.541-0.541V6.02C15.994,5.721,15.752,5.479,15.453,5.479
	 M14.911,13.602H5.162V7.104h9.749V13.602z M15.453,6.563H4.621V6.02h10.832V6.563z"/>
</svg>
