<?xml version="1.0" encoding="utf-8"?>
<!-- Generator: Adobe Illustrator 16.0.0, SVG Export Plug-In . SVG Version: 6.00 Build 0)  -->
<!DOCTYPE svg PUBLIC "-//W3C//DTD SVG 1.1//EN" "http://www.w3.org/Graphics/SVG/1.1/DTD/svg11.dtd">
<svg version="1.1" id="Layer_1" xmlns="http://www.w3.org/2000/svg" xmlns:xlink="http://www.w3.org/1999/xlink" x="0px" y="0px"
	 width="20.076px" height="20.075px" viewBox="0 0 20.076 20.075" enable-background="new 0 0 20.076 20.075" xml:space="preserve">
<circle fill="none" cx="10.038" cy="10.039" r="10.038"/>
<path fill="#E5E5E5" d="M7.529,8.185h0.93c0.148,0,0.271-0.12,0.271-0.27S8.607,7.644,8.459,7.644h-0.93
	c-0.15,0-0.27,0.122-0.27,0.271S7.379,8.185,7.529,8.185 M7.529,9.81h4.72c0.149,0,0.271-0.119,0.271-0.27
	c0-0.149-0.122-0.271-0.271-0.271h-4.72c-0.15,0-0.27,0.122-0.27,0.271C7.26,9.691,7.379,9.81,7.529,9.81 M14.145,4.937h-8.51
	c-0.299,0-0.541,0.245-0.541,0.541v8.666l2.707,2.709h6.344c0.299,0,0.542-0.243,0.542-0.543V5.478
	C14.687,5.182,14.443,4.937,14.145,4.937 M7.801,16.041l-1.895-1.896h1.895V16.041z M14.145,16.31H8.343v-2.438
	c0-0.149-0.122-0.271-0.271-0.271H5.635V5.478h8.51V16.31z M7.529,11.437h3.096c0.149,0,0.271-0.121,0.271-0.271
	c0-0.149-0.121-0.271-0.271-0.271H7.529c-0.15,0-0.27,0.122-0.27,0.271C7.26,11.316,7.379,11.437,7.529,11.437"/>
</svg>
