<?xml version="1.0" encoding="utf-8"?>
<!-- Generator: Adobe Illustrator 16.0.0, SVG Export Plug-In . SVG Version: 6.00 Build 0)  -->
<!DOCTYPE svg PUBLIC "-//W3C//DTD SVG 1.1//EN" "http://www.w3.org/Graphics/SVG/1.1/DTD/svg11.dtd">
<svg version="1.1" id="Layer_1" xmlns="http://www.w3.org/2000/svg" xmlns:xlink="http://www.w3.org/1999/xlink" x="0px" y="0px"
	 width="20.076px" height="20.075px" viewBox="0 0 20.076 20.075" enable-background="new 0 0 20.076 20.075" xml:space="preserve">
<circle fill="none" cx="10.038" cy="10.038" r="10.038"/>
<path fill="#E5E5E5" d="M15.086,5.653l0.002-0.003l-3.42-0.979l-0.002,0.004C11.645,4.67,11.623,4.663,11.6,4.663
	c-0.021,0-0.045,0.008-0.065,0.012l-0.001-0.004L8.18,5.63L4.825,4.671L4.823,4.675C4.803,4.67,4.781,4.663,4.758,4.663
	c-0.135,0-0.244,0.109-0.244,0.245v9.285c0,0.111,0.076,0.2,0.178,0.232L4.69,14.428l3.421,0.978l0.002-0.003
	c0.021,0.005,0.043,0.014,0.066,0.014s0.045-0.008,0.064-0.014l0.002,0.003l3.354-0.958l3.355,0.958v-0.003
	c0.021,0.005,0.043,0.014,0.065,0.014c0.136,0,0.245-0.111,0.245-0.245V5.884C15.266,5.772,15.19,5.683,15.086,5.653 M7.935,14.845
	l-2.933-0.837V5.23l2.933,0.839V14.845z M11.356,14.008l-2.933,0.837V6.069l2.933-0.839V14.008z M14.777,14.845l-2.932-0.837V5.23
	l2.932,0.839V14.845z"/>
</svg>
